<svg width="118" height="37" viewBox="0 0 118 37" fill="none" xmlns="http://www.w3.org/2000/svg">
<rect width="118" height="37" rx="15" fill="#444444" style="fill:#444444;fill:color(display-p3 0.2667 0.2667 0.2667);fill-opacity:1;"/>
<path d="M95 23L90 18L91.4 16.55L94 19.15V11H96V19.15L98.6 16.55L100 18L95 23ZM89 27C88.45 27 87.9793 26.8043 87.588 26.413C87.1967 26.0217 87.0007 25.5507 87 25V22H89V25H101V22H103V25C103 25.55 102.804 26.021 102.413 26.413C102.022 26.805 101.551 27.0007 101 27H89Z" fill="white" style="fill:white;fill-opacity:1;"/>
<path d="M64 29C63.1667 29 62.4583 28.7083 61.875 28.125C61.2917 27.5417 61 26.8333 61 26C61 25.9 61.025 25.6667 61.075 25.3L54.05 21.2C53.7833 21.45 53.475 21.646 53.125 21.788C52.775 21.93 52.4 22.0007 52 22C51.1667 22 50.4583 21.7083 49.875 21.125C49.2917 20.5417 49 19.8333 49 19C49 18.1667 49.2917 17.4583 49.875 16.875C50.4583 16.2917 51.1667 16 52 16C52.4 16 52.775 16.071 53.125 16.213C53.475 16.355 53.7833 16.5507 54.05 16.8L61.075 12.7C61.0417 12.5833 61.021 12.471 61.013 12.363C61.005 12.255 61.0007 12.134 61 12C61 11.1667 61.2917 10.4583 61.875 9.875C62.4583 9.29167 63.1667 9 64 9C64.8333 9 65.5417 9.29167 66.125 9.875C66.7083 10.4583 67 11.1667 67 12C67 12.8333 66.7083 13.5417 66.125 14.125C65.5417 14.7083 64.8333 15 64 15C63.6 15 63.225 14.929 62.875 14.787C62.525 14.645 62.2167 14.4493 61.95 14.2L54.925 18.3C54.9583 18.4167 54.9793 18.5293 54.988 18.638C54.9967 18.7467 55.0007 18.8673 55 19C54.9993 19.1327 54.9953 19.2537 54.988 19.363C54.9807 19.4723 54.9597 19.5847 54.925 19.7L61.95 23.8C62.2167 23.55 62.525 23.3543 62.875 23.213C63.225 23.0717 63.6 23.0007 64 23C64.8333 23 65.5417 23.2917 66.125 23.875C66.7083 24.4583 67 25.1667 67 26C67 26.8333 66.7083 27.5417 66.125 28.125C65.5417 28.7083 64.8333 29 64 29Z" fill="white" style="fill:white;fill-opacity:1;"/>
<path d="M16.5714 20.4286H8V17.5714H16.5714V9H19.4286V17.5714H28V20.4286H19.4286V29H16.5714V20.4286Z" fill="white" style="fill:white;fill-opacity:1;"/>
</svg>
