<svg width="20" height="20" viewBox="0 0 20 20" fill="none" xmlns="http://www.w3.org/2000/svg">
<path d="M9.91683 18.3333L13.7085 8.33332H15.4585L19.2502 18.3333H17.5002L16.6043 15.7917H12.5627L11.6668 18.3333H9.91683ZM3.3335 15.8333L2.16683 14.6667L6.37516 10.4583C5.88905 9.97221 5.44794 9.41666 5.05183 8.79166C4.65572 8.16666 4.29127 7.45832 3.9585 6.66666H5.7085C5.98627 7.20832 6.26405 7.68055 6.54183 8.08332C6.81961 8.4861 7.15294 8.88888 7.54183 9.29166C8.00016 8.83332 8.476 8.19082 8.96933 7.36416C9.46266 6.53749 9.83405 5.74943 10.0835 4.99999H0.833496V3.33332H6.66683V1.66666H8.3335V3.33332H14.1668V4.99999H11.7502C11.4585 5.99999 11.021 7.02777 10.4377 8.08332C9.85433 9.13888 9.27794 9.94444 8.7085 10.5L10.7085 12.5417L10.0835 14.25L7.54183 11.6458L3.3335 15.8333ZM13.0835 14.3333H16.0835L14.5835 10.0833L13.0835 14.3333Z" fill="white"/>
</svg>
