<svg width="70" height="70" viewBox="0 0 70 70" fill="none" xmlns="http://www.w3.org/2000/svg">
<rect x="0.5" y="0.5" width="69" height="69" rx="34.5" fill="#444444" stroke="black"/>
<path d="M34.5 40.4167C33.2847 40.4167 32.2518 39.9913 31.4011 39.1406C30.5504 38.2899 30.125 37.2569 30.125 36.0417V27.2917C30.125 26.0764 30.5504 25.0434 31.4011 24.1927C32.2518 23.342 33.2847 22.9167 34.5 22.9167C35.7153 22.9167 36.7483 23.342 37.599 24.1927C38.4497 25.0434 38.875 26.0764 38.875 27.2917V36.0417C38.875 37.2569 38.4497 38.2899 37.599 39.1406C36.7483 39.9913 35.7153 40.4167 34.5 40.4167ZM33.0417 50.625V46.1406C30.5139 45.8003 28.4236 44.6701 26.7709 42.75C25.1181 40.8299 24.2917 38.5937 24.2917 36.0417H27.2084C27.2084 38.059 27.9195 39.7789 29.3419 41.2012C30.7643 42.6236 32.4836 43.3343 34.5 43.3333C36.5164 43.3324 38.2363 42.6212 39.6596 41.1998C41.0829 39.7784 41.7936 38.059 41.7917 36.0417H44.7084C44.7084 38.5937 43.882 40.8299 42.2292 42.75C40.5764 44.6701 38.4861 45.8003 35.9584 46.1406V50.625H33.0417Z" fill="white"/>
</svg>
