<svg width="32" height="32" viewBox="0 0 32 32" fill="none" xmlns="http://www.w3.org/2000/svg">
<path d="M30.1333 32C26.4296 32 22.7704 31.1929 19.1556 29.5787C15.5407 27.9644 12.2519 25.6753 9.28889 22.7111C6.32593 19.747 4.03733 16.4581 2.42311 12.8444C0.808889 9.23082 0.00118519 5.57156 0 1.86667C0 1.33333 0.177778 0.888889 0.533333 0.533333C0.888889 0.177778 1.33333 0 1.86667 0H9.06667C9.48148 0 9.85185 0.141037 10.1778 0.423111C10.5037 0.705185 10.6963 1.03822 10.7556 1.42222L11.9111 7.64444C11.9704 8.11852 11.9556 8.51852 11.8667 8.84444C11.7778 9.17037 11.6148 9.45185 11.3778 9.68889L7.06667 14.0444C7.65926 15.1407 8.36267 16.1997 9.17689 17.2213C9.99111 18.243 10.8877 19.2284 11.8667 20.1778C12.7852 21.0963 13.7481 21.9484 14.7556 22.7342C15.763 23.52 16.8296 24.2382 17.9556 24.8889L22.1333 20.7111C22.4 20.4444 22.7484 20.2447 23.1787 20.112C23.6089 19.9793 24.0308 19.9419 24.4444 20L30.5778 21.2444C30.9926 21.363 31.3333 21.5781 31.6 21.8898C31.8667 22.2015 32 22.5493 32 22.9333V30.1333C32 30.6667 31.8222 31.1111 31.4667 31.4667C31.1111 31.8222 30.6667 32 30.1333 32Z" fill="white" style="fill:white;fill-opacity:1;"/>
</svg>
