<svg width="40" height="40" viewBox="0 0 40 40" fill="none" xmlns="http://www.w3.org/2000/svg">
<rect x="0.75" y="0.75" width="38.5" height="38.5" rx="19.25" fill="#444444" stroke="#212121" stroke-width="1.5"/>
<path d="M10 18.8889H18.8889V10H10V18.8889ZM12.2222 12.2222H16.6667V16.6667H12.2222V12.2222ZM10 30H18.8889V21.1111H10V30ZM12.2222 23.3333H16.6667V27.7778H12.2222V23.3333ZM21.1111 10V18.8889H30V10H21.1111ZM27.7778 16.6667H23.3333V12.2222H27.7778V16.6667ZM27.7778 27.7778H30V30H27.7778V27.7778ZM21.1111 21.1111H23.3333V23.3333H21.1111V21.1111ZM23.3333 23.3333H25.5556V25.5556H23.3333V23.3333ZM21.1111 25.5556H23.3333V27.7778H21.1111V25.5556ZM23.3333 27.7778H25.5556V30H23.3333V27.7778ZM25.5556 25.5556H27.7778V27.7778H25.5556V25.5556ZM25.5556 21.1111H27.7778V23.3333H25.5556V21.1111ZM27.7778 23.3333H30V25.5556H27.7778V23.3333Z" fill="white"/>
</svg>
