<svg width="40" height="40" viewBox="0 0 40 40" fill="none" xmlns="http://www.w3.org/2000/svg">
<rect x="0.75" y="0.75" width="38.5" height="38.5" rx="19.25" fill="#444444" stroke="#212121" stroke-width="1.5"/>
<path fill-rule="evenodd" clip-rule="evenodd" d="M16.3805 16.119C16.3805 15.235 16.7317 14.3871 17.3568 13.762C17.982 13.1369 18.8298 12.7857 19.7139 12.7857C20.5979 12.7857 21.4458 13.1369 22.0709 13.762C22.696 14.3871 23.0472 15.235 23.0472 16.119C23.0472 17.0031 22.696 17.8509 22.0709 18.4761C21.4458 19.1012 20.5979 19.4524 19.7139 19.4524C18.8298 19.4524 17.982 19.1012 17.3568 18.4761C16.7317 17.8509 16.3805 17.0031 16.3805 16.119ZM16.3805 21.119C15.2755 21.119 14.2157 21.558 13.4343 22.3394C12.6529 23.1208 12.2139 24.1806 12.2139 25.2857C12.2139 25.9487 12.4773 26.5846 12.9461 27.0535C13.4149 27.5223 14.0508 27.7857 14.7139 27.7857H24.7139C25.3769 27.7857 26.0128 27.5223 26.4816 27.0535C26.9505 26.5846 27.2139 25.9487 27.2139 25.2857C27.2139 24.1806 26.7749 23.1208 25.9935 22.3394C25.2121 21.558 24.1523 21.119 23.0472 21.119H16.3805Z" fill="white"/>
</svg>
